<svg version="1.1" id="Layer_1" xmlns="http://www.w3.org/2000/svg" xmlns:xlink="http://www.w3.org/1999/xlink" x="0px" y="0px"
	 width="100%" viewBox="0 0 1024 1024" enable-background="new 0 0 1024 1024" xml:space="preserve">
<path fill="#000000" opacity="1.000000" stroke="none" 
	d="
M490.351898,462.487610 
	C517.290283,472.463287 542.637390,485.182220 568.855042,495.858398 
	C595.941650,506.888428 623.619568,515.916626 652.912476,518.403015 
	C670.588806,519.903381 688.271423,519.161743 704.743347,511.180511 
	C725.012024,501.359741 735.384521,484.258453 739.596008,462.873749 
	C740.684570,457.346161 741.260193,451.674194 741.522461,446.042969 
	C741.689758,442.452057 743.107605,441.526306 746.400146,441.611359 
	C753.060364,441.783325 759.738281,441.883209 766.389282,441.581268 
	C770.765991,441.382568 772.321655,442.916351 772.163940,447.289276 
	C771.527405,464.943420 769.909302,482.466461 766.253967,499.778900 
	C761.308777,523.200623 752.784424,545.030029 738.074646,564.178528 
	C719.245239,588.689819 693.977844,601.610962 663.703186,605.340759 
	C631.824768,609.268127 601.059326,603.694397 570.889709,593.806580 
	C538.553406,583.208618 508.036835,568.077576 476.434937,555.646362 
	C448.334839,544.592712 419.736877,535.137024 389.591125,531.663391 
	C365.525177,528.890320 341.649811,529.298706 319.245483,540.424805 
	C297.213715,551.365845 286.458923,569.825378 284.464264,593.774719 
	C284.125275,597.844666 282.969940,599.383301 278.886505,599.247986 
	C272.062469,599.021851 265.224854,599.099060 258.395142,599.198181 
	C255.425293,599.241333 254.319962,598.292908 254.487137,595.104675 
	C257.157440,544.181763 277.117096,502.056580 318.393524,471.242126 
	C338.350647,456.343323 361.585114,449.342743 386.175476,446.710815 
	C422.134796,442.862061 456.307312,450.998108 490.351898,462.487610 
z"/>
</svg>