<?xml version="1.0" encoding="UTF-8"?>
<svg width="20%" version="1.1" viewBox="0 0 23.293 5.0102">
 <defs>
  <linearGradient id="linearGradient879-5" x1="92.747" x2="8.7603" y1="999.79" y2="1004" gradientUnits="userSpaceOnUse">
   <stop stop-color="#d7d986" offset="0"/>
   <stop stop-color="#91d9d2" offset="1"/>
  </linearGradient>
  <linearGradient id="linearGradient1171" x1="63.877" x2="87.169" y1="167.16" y2="167.16" gradientUnits="userSpaceOnUse" xlink:href="#linearGradient879-5"/>
  <linearGradient id="linearGradient1180" x1="91.297" x2="6.5978" y1="1000.2" y2="1004.5" gradientUnits="userSpaceOnUse" xlink:href="#linearGradient879-5"/>
 </defs>
 <g transform="translate(-63.876 -164.66)" fill="url(#linearGradient1171)">
  <g transform="matrix(.26458 0 0 .26458 69.023 153.32)" fill="url(#linearGradient1171)">
   <g transform="translate(-25.433 -950.05)" fill="url(#linearGradient1171)">
    <path d="m27.142 992.89c-7.7852-0.0306-15.644 2.8206-20.766 9.9378a2 2 0 1 0 3.2463 2.3363c4.2982-5.9728 10.674-8.3016 17.504-8.2747 6.8298 0.0269 14.004 2.5576 19.116 6.2306a2 2 0 0 0 0 3e-4c8.348 5.9956 17.783 8.9632 26.383 8.6882 8.6004-0.2751 16.454-3.8987 21.054-11.028a2 2 0 1 0-3.3607-2.1681c-3.8197 5.9202-10.241 8.9566-17.821 9.1991-7.5795 0.2424-16.23-2.4148-23.922-7.9391v-3.1e-4c-5.8275-4.1868-13.649-6.9509-21.434-6.9816z" color="#000000" fill="url(#linearGradient1180)" fill-rule="evenodd" overflow="visible" style="text-indent:0;text-transform:none"/>
   </g>
  </g>
 </g>
</svg>
